<?xml version="1.0" standalone="no"?>
<!DOCTYPE svg PUBLIC "-//W3C//DTD SVG 20010904//EN"
 "http://www.w3.org/TR/2001/REC-SVG-20010904/DTD/svg10.dtd">
<svg version="1.0" xmlns="http://www.w3.org/2000/svg"
 width="115.000000pt" height="115.000000pt" viewBox="0 0 115.000000 115.000000"
 preserveAspectRatio="xMidYMid meet">

<g transform="translate(0.000000,115.000000) scale(0.100000,-0.100000)"
fill="#000000" stroke="none">
<path d="M480 1054 c-30 -8 -75 -27 -100 -41 -89 -53 -203 -180 -170 -191 7
-3 40 -29 72 -59 33 -30 63 -53 67 -51 5 2 44 50 86 108 87 118 124 160 140
160 6 0 57 -56 114 -125 57 -69 106 -125 110 -125 3 1 21 21 39 46 19 25 40
48 47 50 7 3 43 -18 79 -46 l66 -52 -15 42 c-21 60 -81 145 -133 189 -114 98
-261 133 -402 95z"/>
<path d="M484 838 c-50 -73 -93 -138 -96 -143 -4 -6 16 -37 42 -69 l49 -60
-54 -24 c-36 -16 -55 -31 -55 -42 0 -10 -6 -20 -14 -23 -22 -9 -49 -103 -42
-143 4 -21 3 -34 -4 -34 -5 0 -10 -7 -10 -15 0 -11 11 -15 40 -15 33 0 42 -4
49 -24 17 -43 81 -35 81 10 0 11 23 14 120 14 117 0 121 -1 129 -24 5 -13 17
-26 26 -30 23 -9 55 11 55 34 0 17 7 20 50 20 38 0 50 4 50 15 0 8 -4 15 -10
15 -5 0 -10 18 -10 39 0 32 -9 50 -46 95 -44 54 -47 56 -94 56 -49 0 -49 0
-60 41 -6 23 -12 55 -12 73 0 17 -2 34 -5 38 -2 4 -37 -9 -79 -28 -41 -19 -77
-34 -79 -34 -2 0 30 64 71 143 l73 143 -35 52 c-19 29 -36 52 -37 52 -2 0 -44
-60 -93 -132z"/>
<path d="M195 753 c-22 -57 -24 -98 -6 -141 l13 -32 27 20 c14 11 39 31 55 44
l28 24 -42 58 c-24 33 -46 63 -50 67 -4 4 -15 -14 -25 -40z"/>
<path d="M860 758 l-31 -42 28 -23 c15 -13 41 -33 57 -45 l29 -22 -6 73 c-6
68 -18 101 -38 101 -5 0 -23 -19 -39 -42z"/>
</g>
</svg>
